<svg width="25" height="23" viewBox="0 0 25 23" fill="none" xmlns="http://www.w3.org/2000/svg">
<path fill-rule="evenodd" clip-rule="evenodd" d="M13.1011 1.17383C12.823 0.942056 12.419 0.942054 12.1408 1.17383L1.36181 10.1564C0.643294 10.7551 1.0667 11.9246 2.00199 11.9246H3.64534L4.05034 20.0244C4.10356 21.0889 4.98209 21.9246 6.04784 21.9246H10.871C11.2852 21.9246 11.621 21.5888 11.621 21.1746V14.9246C11.621 14.6484 11.8448 14.4246 12.121 14.4246H13.121C13.3971 14.4246 13.621 14.6484 13.621 14.9246V21.1746C13.621 21.5888 13.9568 21.9246 14.371 21.9246H19.1941C20.2598 21.9246 21.1384 21.0889 21.1916 20.0244L21.5966 11.9246H23.2399C24.1752 11.9246 24.5986 10.7551 23.8801 10.1564L13.1011 1.17383Z" stroke="#CDEB3F"/>
</svg>
