<svg width="24" height="21" viewBox="0 0 24 21" fill="none" xmlns="http://www.w3.org/2000/svg">
<path fill-rule="evenodd" clip-rule="evenodd" d="M12.1011 0.173834C11.823 -0.0579436 11.419 -0.0579458 11.1408 0.173834L0.361809 9.15635C-0.356706 9.75511 0.0666969 10.9246 1.00199 10.9246H2.64534L3.05034 19.0244C3.10356 20.0889 3.98209 20.9246 5.04784 20.9246H9.87097C10.2852 20.9246 10.621 20.5888 10.621 20.1746V13.9246C10.621 13.6484 10.8448 13.4246 11.121 13.4246H12.121C12.3971 13.4246 12.621 13.6484 12.621 13.9246V20.1746C12.621 20.5888 12.9568 20.9246 13.371 20.9246H18.1941C19.2598 20.9246 20.1384 20.0889 20.1916 19.0244L20.5966 10.9246H22.2399C23.1752 10.9246 23.5986 9.75511 22.8801 9.15635L12.1011 0.173834Z" fill="#CDEB3F"/>
</svg>
