<svg width="26" height="24" viewBox="0 0 26 24" fill="none" xmlns="http://www.w3.org/2000/svg">
<path d="M8.8 9.57343C8.46863 9.57343 8.2 9.81333 8.2 10.1093V11.1809C8.2 11.4769 8.46863 11.7168 8.8 11.7168H17.2C17.5314 11.7168 17.8 11.4769 17.8 11.1809V10.1093C17.8 9.81333 17.5314 9.57343 17.2 9.57343H8.8Z" stroke="#CDEB3F"/>
<path fill-rule="evenodd" clip-rule="evenodd" d="M3.4 1C2.07452 1 1 1.95961 1 3.14336V17.0752C1 18.2589 2.07452 19.2185 3.4 19.2185H8.84808L12.0854 22.6221C12.5646 23.126 13.4354 23.126 13.9146 22.6221L17.1519 19.2185H22.6C23.9255 19.2185 25 18.2589 25 17.0752V3.14336C25 1.95961 23.9255 1 22.6 1H3.4ZM3.4 17.0752V3.14336H22.6V17.0752H16.6044C16.2516 17.0752 15.9166 17.2139 15.6886 17.4544L13 20.2902L10.3114 17.4544C10.0834 17.2139 9.74844 17.0752 9.39559 17.0752H3.4Z" stroke="#CDEB3F"/>
</svg>
