<svg width="25" height="24" viewBox="0 0 25 24" fill="none" xmlns="http://www.w3.org/2000/svg">
<mask id="path-1-inside-1_20_376" fill="white">
<path fill-rule="evenodd" clip-rule="evenodd" d="M22 12C22 16.8563 17.8633 21 12.5 21C7.1367 21 3 16.8563 3 12C3 7.14368 7.1367 3 12.5 3C17.8633 3 22 7.14368 22 12ZM25 12C25 18.6274 19.4036 24 12.5 24C5.59644 24 0 18.6274 0 12C0 5.37258 5.59644 0 12.5 0C19.4036 0 25 5.37258 25 12ZM11.7086 5.45456H13.5552V11.5422H19.8864V13.2467H13.5552V19.0909H11.7086V13.2467H5.11363V11.5422H11.7086V5.45456Z"/>
</mask>
<path d="M13.5552 5.45456H14.5552V4.45456H13.5552V5.45456ZM11.7086 5.45456V4.45456H10.7086V5.45456H11.7086ZM13.5552 11.5422H12.5552V12.5422H13.5552V11.5422ZM19.8864 11.5422H20.8864V10.5422H19.8864V11.5422ZM19.8864 13.2467V14.2467H20.8864V13.2467H19.8864ZM13.5552 13.2467V12.2467H12.5552V13.2467H13.5552ZM13.5552 19.0909V20.0909H14.5552V19.0909H13.5552ZM11.7086 19.0909H10.7086V20.0909H11.7086V19.0909ZM11.7086 13.2467H12.7086V12.2467H11.7086V13.2467ZM5.11363 13.2467H4.11363V14.2467H5.11363V13.2467ZM5.11363 11.5422V10.5422H4.11363V11.5422H5.11363ZM11.7086 11.5422V12.5422H12.7086V11.5422H11.7086ZM12.5 22C18.3806 22 23 17.443 23 12H21C21 16.2696 17.346 20 12.5 20V22ZM2 12C2 17.443 6.61944 22 12.5 22V20C7.65395 20 4 16.2696 4 12H2ZM12.5 2C6.61944 2 2 6.55701 2 12H4C4 7.73035 7.65395 4 12.5 4V2ZM23 12C23 6.55701 18.3806 2 12.5 2V4C17.346 4 21 7.73035 21 12H23ZM12.5 25C19.917 25 26 19.2178 26 12H24C24 18.0371 18.8901 23 12.5 23V25ZM-1 12C-1 19.2178 5.08302 25 12.5 25V23C6.10986 23 1 18.0371 1 12H-1ZM12.5 -1C5.08302 -1 -1 4.78222 -1 12H1C1 5.96295 6.10986 1 12.5 1V-1ZM26 12C26 4.78222 19.917 -1 12.5 -1V1C18.8901 1 24 5.96295 24 12H26ZM13.5552 4.45456H11.7086V6.45456H13.5552V4.45456ZM14.5552 11.5422V5.45456H12.5552V11.5422H14.5552ZM19.8864 10.5422H13.5552V12.5422H19.8864V10.5422ZM20.8864 13.2467V11.5422H18.8864V13.2467H20.8864ZM13.5552 14.2467H19.8864V12.2467H13.5552V14.2467ZM14.5552 19.0909V13.2467H12.5552V19.0909H14.5552ZM11.7086 20.0909H13.5552V18.0909H11.7086V20.0909ZM10.7086 13.2467V19.0909H12.7086V13.2467H10.7086ZM5.11363 14.2467H11.7086V12.2467H5.11363V14.2467ZM4.11363 11.5422V13.2467H6.11363V11.5422H4.11363ZM11.7086 10.5422H5.11363V12.5422H11.7086V10.5422ZM10.7086 5.45456V11.5422H12.7086V5.45456H10.7086Z" fill="#CDEB3F" mask="url(#path-1-inside-1_20_376)"/>
</svg>
