<svg width="19" height="21" viewBox="0 0 19 21" fill="none" xmlns="http://www.w3.org/2000/svg">
<path d="M14.3582 5.75C14.3582 8.6495 12.0077 11 9.10815 11C6.20866 11 3.85815 8.6495 3.85815 5.75C3.85815 2.85051 6.20866 0.5 9.10815 0.5C12.0077 0.5 14.3582 2.85051 14.3582 5.75ZM9.10815 10C11.4554 10 13.3582 8.09721 13.3582 5.75C13.3582 3.40279 11.4554 1.5 9.10815 1.5C6.76094 1.5 4.85815 3.40279 4.85815 5.75C4.85815 8.09721 6.76094 10 9.10815 10ZM1.42787 20.1826L0.505443 19.8469C1.63777 16.1708 5.06171 13.5 9.10814 13.5C13.1546 13.5 16.5785 16.1708 17.7109 19.8469L16.7885 20.1826C16.7883 20.1827 16.7881 20.1827 16.788 20.1828C16.7872 20.1826 16.7847 20.1821 16.781 20.1801C16.7712 20.1749 16.7618 20.1646 16.7576 20.1508C15.754 16.8794 12.7096 14.5 9.10814 14.5C5.50668 14.5 2.46227 16.8794 1.45874 20.1508C1.4545 20.1646 1.44516 20.1749 1.43532 20.1801C1.43159 20.1821 1.42912 20.1826 1.42829 20.1827C1.42818 20.1827 1.42804 20.1827 1.42787 20.1826Z" stroke="#CDEB3F"/>
</svg>
