<svg width="13" height="16" viewBox="0 0 13 16" fill="none" xmlns="http://www.w3.org/2000/svg">
<mask id="path-1-inside-1_33_540" fill="white">
<path fill-rule="evenodd" clip-rule="evenodd" d="M11.8901 9.24409C12.7146 9.24409 13.1848 8.30242 12.6895 7.64331L7.24536 0.399219C6.84532 -0.133074 6.04656 -0.133073 5.64653 0.39922L0.202404 7.64331C-0.292937 8.30242 0.177322 9.24409 1.00182 9.24409H3.2167C3.76898 9.24409 4.2167 9.6918 4.2167 10.2441V14.972C4.2167 15.5242 4.66441 15.972 5.2167 15.972H7.67521C8.2275 15.972 8.67521 15.5242 8.67521 14.972V10.2441C8.67521 9.6918 9.12292 9.24409 9.67521 9.24409H11.8901Z"/>
</mask>
<path d="M0.202404 7.64331L-0.59701 7.04253L0.202404 7.64331ZM12.6895 7.64331L11.8901 8.24409L12.6895 7.64331ZM7.24536 0.399219L6.44594 1L7.24536 0.399219ZM5.64653 0.39922L4.84711 -0.201561L5.64653 0.39922ZM6.44594 1L11.8901 8.24409L13.4889 7.04253L8.04477 -0.201561L6.44594 1ZM1.00182 8.24409L6.44594 1L4.84711 -0.201561L-0.59701 7.04253L1.00182 8.24409ZM3.2167 8.24409H1.00182V10.2441H3.2167V8.24409ZM5.2167 14.972V10.2441H3.2167V14.972H5.2167ZM7.67521 14.972H5.2167V16.972H7.67521V14.972ZM7.67521 10.2441V14.972H9.67521V10.2441H7.67521ZM11.8901 8.24409H9.67521V10.2441H11.8901V8.24409ZM9.67521 10.2441H9.67521V8.24409C8.57064 8.24409 7.67521 9.13952 7.67521 10.2441H9.67521ZM7.67521 16.972C8.77978 16.972 9.67521 16.0765 9.67521 14.972H7.67521V14.972V16.972ZM3.2167 14.972C3.2167 16.0765 4.11213 16.972 5.2167 16.972V14.972H3.2167ZM3.2167 10.2441V10.2441H5.2167C5.2167 9.13952 4.32127 8.24409 3.2167 8.24409V10.2441ZM-0.59701 7.04253C-1.58769 8.36075 -0.647176 10.2441 1.00182 10.2441V8.24409H1.00182L-0.59701 7.04253ZM11.8901 8.24409L11.8901 8.24409V10.2441C13.5391 10.2441 14.4796 8.36075 13.4889 7.04253L11.8901 8.24409ZM8.04477 -0.201561C7.24471 -1.26615 5.64718 -1.26614 4.84711 -0.201561L6.44594 1L6.44594 1L8.04477 -0.201561Z" fill="white" mask="url(#path-1-inside-1_33_540)"/>
</svg>
